<svg xmlns="http://www.w3.org/2000/svg" style="display: none;"><symbol id="maintenance" viewBox="0 0 64 64"><title>maintenance</title><path d="m28 19.99c1.654 0 3-1.346 3-3h-2c0 .551-.448 1-1 1s-1-.449-1-1h-2c0 1.654 1.346 3 3 3z"/><path d="m61 1h-6c-1.103 0-2 .897-2 2h-.544c-.706-1.217-2.014-2-3.456-2-1.493 0-2.782.832-3.469 2.047-2.535.241-4.531 2.357-4.531 4.953 0 2.757 2.243 5 5 5 .49 0 .973-.078 1.438-.218.658 1.309 1.999 2.218 3.562 2.218.732 0 1.409-.212 2-.556v6.556h-2c0-.51-.198-.971-.513-1.324.324-.479.513-1.056.513-1.676 0-1.654-1.346-3-3-3h-4c-1.654 0-3 1.346-3 3 0 .395.081.77.22 1.116-1.275.345-2.22 1.501-2.22 2.884 0 1.302.839 2.402 2 2.816v10.129l-6.586-.357c-.362-.363-.862-.588-1.414-.588v-2h-2v2c-.409 0-.789.124-1.106.336l-4.894-.28v-2.058l1.994.002h.006c1.602 0 3.107-.624 4.24-1.755 1.135-1.134 1.76-2.641 1.76-4.245v-2.382l2-1v-.618c0-2.731-.857-5.412-1.479-7h1.479c1.103 0 2-.897 2-2v-1.99c0-1.102-.896-1.999-1.999-2l-3.252-.002c-1.531-4.75-5.941-8.007-10.994-8.008h-.755-.001c-3.472 0-6.736 1.352-9.191 3.807-2.455 2.456-3.808 5.72-3.808 9.193v3.323c0 5.114 2.442 9.999 6.531 13.064l1.469 1.11v2.611l-.145.017c-.377-1.226-1.507-2.125-2.855-2.125-.771 0-1.468.301-2 .78-.532-.479-1.229-.78-2-.78-1.654 0-3 1.346-3 3v1.432c-.266.179-.536.349-.786.553-2.042 1.67-3.214 4.14-3.214 6.778 0 2.325.901 4.513 2.538 6.162.442.445.937.942 1.462 1.469v.606c0 6.065 4.935 11 11 11h25v-2h-4v-15.464c0-.183-.033-.358-.054-.536h7.054c3.859 0 7-3.14 7-7v-15h2v22c0 1.103.897 2 2 2h6c1.103 0 2-.897 2-2v-42c0-1.103-.897-2-2-2zm-17 16h4c.552 0 1 .449 1 1s-.448 1-1 1h-4c-.552 0-1-.449-1-1s.448-1 1-1zm-11 19v5.058c-.194-.024-.385-.058-.586-.058-.489 0-.964.085-1.414.237v-5.237zm-.017-14.61-1.983.992v3.618h-1.764c-.998 0-1.896-.555-2.342-1.447l-1.789.895c.789 1.574 2.372 2.552 4.131 2.552h1.21c-.173.297-.37.58-.62.83-.755.754-1.759 1.17-2.826 1.17-.001 0-.003 0-.004 0l-5.995-.006-.002 2 2.001.002v2.59l-.293.293c-.713.712-1.699 1.121-2.707 1.121s-1.994-.409-2.707-1.121l-.293-.293v-10.086l-3.066-2.3c-.585-.438-.934-1.136-.934-1.867 0-1.286 1.047-2.333 2.333-2.333h1.388l1-3h13.637c.478 1.102 1.486 3.708 1.625 6.39zm2.017-8.39h-18l-.001-2 18.001.01zm-15.142-9.993.133.044c2.676.891 4.556 3.217 4.93 5.953l-1.994-.001c-.252-2.338-1.363-4.47-3.095-5.995.008.001.017 0 .026-.001zm9.765 6-2.682-.001c-.208-1.95-1.017-3.746-2.273-5.17 2.231.999 4.023 2.838 4.955 5.171zm-17.401-2.785c1.326-1.326 2.933-2.267 4.684-2.777 2.192 1.079 3.692 3.164 4.021 5.558l-3.926-.003c-.001 0-.001 0-.002 0-.533 0-1.035.208-1.413.585-.378.379-.586.881-.586 1.415v2h-2v-2h-2v2h-1.951c.229-2.56 1.333-4.938 3.173-6.778zm2.511 22.568c-3.589-2.693-5.733-6.979-5.733-11.467v-2.323h6.613l-.334 1c-2.364.029-4.279 1.962-4.279 4.333 0 1.356.647 2.652 1.733 3.466l2.267 1.701v3.491zm.902 7.259.244.244c1.085 1.085 2.587 1.707 4.121 1.707s3.036-.622 4.121-1.707l.269-.269 4.61.264v5.712c-2.206 0-4 1.794-4 4v.586l-5 5-5-5v-10.464zm-3.635-2.049c.552 0 1 .449 1 1v9.586l-.172-.172c-.55-.55-1.167-1.007-1.828-1.376v-8.038c0-.551.448-1 1-1zm-5 1c0-.551.448-1 1-1 .491 0 .881.362.965.829-.674.12-1.333.294-1.965.542zm-4 8.763c0-2.035.903-3.94 2.479-5.228 1.028-.841 2.234-1.403 3.521-1.685v5.403c-.647-.161-1.316-.253-2-.253v2c1.667 0 3.234.649 4.414 1.828l7.172 7.172-2.293 2.293 1.414 1.414 8.293-8.293 3.586 3.586-7.879 7.879c-.713.712-1.699 1.121-2.707 1.121-1.023 0-1.984-.398-2.707-1.121-2.608-2.611-8.201-8.208-11.335-11.364-1.263-1.271-1.958-2.959-1.958-4.752zm27.586 10.065c-.958 3.242-3.516 5.8-6.759 6.758zm-23.444-.284c2.602 2.61 5.478 5.489 7.3 7.311-3.719-.652-6.652-3.59-7.3-7.311zm20.477 7.456c3.125-2.075 5.214-5.574 5.359-9.563l2.022-2.022v11.585zm6.639-13.671-3.258 3.257-4-4v-.586c0-1.103.897-2 2-2h1.414l.293-.292c.456-.457 1.063-.708 1.758-.708 1.397 0 2.535 1.138 2.535 2.536 0 .677-.264 1.314-.742 1.793zm14.742-9.329c0 2.757-2.243 5-5 5h-7.779c-.325-.477-.74-.889-1.221-1.213v-5.165l6.564.356 1.729 1.729 1.414-1.414-1.707-1.707v-10.586h6zm0-15h-7c-.552 0-1-.449-1-1s.448-1 1-1h7zm4-14h-2v-4h2zm-4-6c.358 0 .691.113.988.285-.588.348-.988.983-.988 1.715v2c-1.103 0-2-.897-2-2s.897-2 2-2zm-6 5c0-1.309.847-2.412 2.018-2.821.075 1.666 1.167 3.058 2.674 3.584-.402.594-.639 1.295-.676 2.037-.326.118-.665.2-1.016.2-1.654 0-3-1.346-3-3zm8 5c-1.103 0-2-.897-2-2 0-.358.113-.691.284-.989.349.589.984.989 1.716.989h2c0 1.103-.897 2-2 2zm4 32v-42h6v12h-2c-1.103 0-2 .897-2 2v10c0 1.103.897 2 2 2h2v16zm4-22h2v4h-2zm0-2v-4h2v4z"/><path d="m57 5h2v8h-2z"/></symbol><symbol id="automation" viewBox="0 0 128 128"><title>automation</title><title>AUTOMATION</title><path d="M126.25,54.083H114.86a51.9,51.9,0,0,0-7.853-19.065l8.122-8.124a1.749,1.749,0,0,0,0-2.475L103.581,12.87a1.749,1.749,0,0,0-2.475,0l-8.095,8.095a51.9,51.9,0,0,0-19.095-7.938V1.75A1.75,1.75,0,0,0,72.167,0H55.833a1.75,1.75,0,0,0-1.75,1.75V13.026a51.894,51.894,0,0,0-19.094,7.938l-8.1-8.095a1.749,1.749,0,0,0-2.475,0L12.87,24.419a1.749,1.749,0,0,0,0,2.475l8.123,8.124a51.894,51.894,0,0,0-7.854,19.065H1.75A1.75,1.75,0,0,0,0,55.833V72.167a1.75,1.75,0,0,0,1.75,1.75H13.2a51.935,51.935,0,0,0,7.909,18.952l-8.237,8.237a1.749,1.749,0,0,0,0,2.475L24.419,115.13a1.749,1.749,0,0,0,2.475,0l8.265-8.265a51.934,51.934,0,0,0,18.924,7.824V126.25a1.75,1.75,0,0,0,1.75,1.75H72.167a1.75,1.75,0,0,0,1.75-1.75V114.689a51.927,51.927,0,0,0,18.923-7.824l8.267,8.265a1.749,1.749,0,0,0,2.475,0l11.549-11.549a1.749,1.749,0,0,0,0-2.475l-8.236-8.237A51.931,51.931,0,0,0,114.8,73.917H126.25a1.75,1.75,0,0,0,1.75-1.75V55.833A1.75,1.75,0,0,0,126.25,54.083ZM124.5,70.417H113.342a1.749,1.749,0,0,0-1.726,1.462A48.33,48.33,0,0,1,103.2,92.047a1.749,1.749,0,0,0,.183,2.26l8.036,8.037-9.074,9.074-8.062-8.061a1.75,1.75,0,0,0-2.255-.187A48.345,48.345,0,0,1,71.884,111.5a1.75,1.75,0,0,0-1.467,1.727V124.5H57.583V113.226a1.749,1.749,0,0,0-1.466-1.727,48.356,48.356,0,0,1-20.146-8.328,1.749,1.749,0,0,0-2.254.187l-8.061,8.061-9.074-9.074,8.036-8.037a1.749,1.749,0,0,0,.183-2.26,48.339,48.339,0,0,1-8.417-20.169,1.75,1.75,0,0,0-1.726-1.461H3.5V57.583H14.607a1.75,1.75,0,0,0,1.728-1.472A48.321,48.321,0,0,1,24.687,35.83a1.75,1.75,0,0,0-.187-2.255l-7.918-7.919,9.074-9.074,7.895,7.895a1.752,1.752,0,0,0,2.26.183,48.316,48.316,0,0,1,20.306-8.442,1.749,1.749,0,0,0,1.466-1.727V3.5H70.417V14.49a1.75,1.75,0,0,0,1.467,1.727,48.318,48.318,0,0,1,20.3,8.442,1.751,1.751,0,0,0,2.261-.183l7.895-7.895,9.074,9.074L103.5,33.575a1.75,1.75,0,0,0-.187,2.255,48.312,48.312,0,0,1,8.352,20.281,1.749,1.749,0,0,0,1.728,1.472H124.5Z"/><path d="M80.85,62.435,53.413,48.716a1.751,1.751,0,0,0-2.533,1.565V77.719a1.75,1.75,0,0,0,2.533,1.565L80.85,65.565a1.75,1.75,0,0,0,0-3.131ZM54.38,74.887V53.113L76.154,64Z"/><path d="M91.282,36.718a1.731,1.731,0,0,0-.183-.15,38.5,38.5,0,0,0-54.2,0,1.163,1.163,0,0,0-.328.328,38.5,38.5,0,0,0,0,54.2,1.163,1.163,0,0,0,.328.328,38.5,38.5,0,0,0,54.2,0,1.184,1.184,0,0,0,.334-.334,38.5,38.5,0,0,0,0-54.2A1.731,1.731,0,0,0,91.282,36.718ZM90,87.527,85.54,83.065A28.66,28.66,0,0,0,92.726,65.75h6.313A34.946,34.946,0,0,1,90,87.527ZM28.961,65.75h6.313a28.66,28.66,0,0,0,7.186,17.315L38,87.527A34.946,34.946,0,0,1,28.961,65.75ZM38,40.473l4.462,4.462A28.66,28.66,0,0,0,35.274,62.25H28.961A34.946,34.946,0,0,1,38,40.473ZM64,89.284A25.284,25.284,0,1,1,89.284,64,25.313,25.313,0,0,1,64,89.284ZM83.065,42.46A28.66,28.66,0,0,0,65.75,35.274V28.961A34.946,34.946,0,0,1,87.527,38ZM62.25,35.274a28.66,28.66,0,0,0-17.315,7.187L40.473,38A34.946,34.946,0,0,1,62.25,28.961ZM44.935,85.539A28.66,28.66,0,0,0,62.25,92.726v6.313A34.946,34.946,0,0,1,40.473,90ZM65.75,92.726A28.66,28.66,0,0,0,83.065,85.54L87.527,90A34.946,34.946,0,0,1,65.75,99.039ZM92.726,62.25A28.66,28.66,0,0,0,85.54,44.935L90,40.473A34.946,34.946,0,0,1,99.039,62.25Z"/></symbol><symbol id="pool" viewBox="-9 0 511 512"><title>pool</title><path d="m80.246094 352.628906 20.765625-12.175781c9.238281-5.417969 20.679687-5.355469 29.855469.164063l19.429687 11.679687c9.386719 5.644531 19.941406 8.46875 30.503906 8.46875 10.339844 0 20.6875-2.710937 29.941407-8.136719l20.765624-12.175781c9.238282-5.417969 20.679688-5.355469 29.859376.164063l19.425781 11.679687c18.585937 11.171875 41.746093 11.296875 60.449219.332031l20.765624-12.175781c9.238282-5.417969 20.675782-5.355469 29.855469.164063l19.425781 11.679687c18.585938 11.171875 41.746094 11.296875 60.449219.332031l20.785157-12.1875-15.171876-25.878906-20.789062 12.1875c-9.222656 5.410156-20.648438 5.347656-29.8125-.164062l-19.429688-11.679688c-15.6875-9.433594-34.644531-11-51.429687-4.660156v-229.566406c0-27.945313 22.734375-50.679688 50.679687-50.679688h25.433594v-30h-25.4375c-44.484375 0-80.675781 36.191406-80.675781 80.679688v24.523437h-125.824219v-24.523437c0-27.945313 22.734375-50.679688 50.679688-50.679688h25.433594v-30h-25.433594c-44.488282 0-80.679688 36.191406-80.679688 80.679688v248.023437c-1.476562-.585937-2.921875-1.28125-4.3125-2.117187l-19.425781-11.679688c-18.59375-11.179688-41.773437-11.308594-60.488281-.332031l-20.769532 12.175781c-9.222656 5.410156-20.648437 5.347656-29.8125-.164062l-19.300781-11.601563-15.457031 25.710937 19.300781 11.601563c18.582031 11.171875 41.742188 11.296875 60.445313.332031zm216.007812-26.042968-19.429687-11.679688c-18.59375-11.179688-41.773438-11.308594-60.488281-.332031l-16.269532 9.539062v-81.5625h125.824219v84.296875c-9.195313 5.308594-20.53125 5.214844-29.636719-.261718zm29.632813-191.382813v77.347656h-125.820313v-77.347656zm0 0"/><path d="m80.246094 428.246094 20.765625-12.175782c9.238281-5.417968 20.679687-5.355468 29.855469.164063l19.429687 11.679687c18.582031 11.171876 41.742187 11.296876 60.445313.332032l20.765624-12.175782c9.238282-5.417968 20.679688-5.355468 29.859376.164063l19.425781 11.679687c18.582031 11.171876 41.742187 11.300782 60.449219.332032l20.765624-12.175782c9.238282-5.417968 20.675782-5.355468 29.855469.164063l19.425781 11.679687c9.390626 5.644532 19.945313 8.46875 30.503907 8.46875 10.34375 0 20.691406-2.710937 29.945312-8.136718l20.785157-12.1875-15.175782-25.878906-20.785156 12.1875c-9.226562 5.410156-20.648438 5.347656-29.8125-.164063l-19.429688-11.679687c-18.59375-11.183594-41.769531-11.308594-60.488281-.332032l-20.765625 12.175782c-9.222656 5.410156-20.648437 5.347656-29.8125-.164063l-19.425781-11.679687c-18.597656-11.183594-41.777344-11.308594-60.492187-.332032l-20.765626 12.175782c-9.222656 5.410156-20.648437 5.347656-29.8125-.164063l-19.425781-11.679687c-18.597656-11.183594-41.777343-11.308594-60.492187-.332032l-20.765625 12.175782c-9.226563 5.410156-20.648438 5.347656-29.8125-.164063l-19.300781-11.601563-15.460938 25.707032 19.300781 11.605468c18.582031 11.171876 41.742188 11.300782 60.445313.332032zm0 0"/><path d="m456.5625 477.984375c-9.226562 5.410156-20.648438 5.347656-29.8125-.164063l-19.429688-11.679687c-18.59375-11.183594-41.773437-11.3125-60.488281-.335937l-20.765625 12.179687c-9.226562 5.410156-20.648437 5.347656-29.8125-.164063l-19.429687-11.679687c-18.59375-11.183594-41.773438-11.308594-60.488281-.335937l-20.765626 12.179687c-9.222656 5.40625-20.648437 5.347656-29.8125-.164063l-19.429687-11.679687c-18.59375-11.183594-41.773437-11.308594-60.488281-.335937l-20.765625 12.179687c-9.226563 5.40625-20.648438 5.347656-29.8125-.164063l-19.300781-11.605468-15.460938 25.710937 19.300781 11.605469c18.578125 11.167969 41.742188 11.296875 60.445313.332031l20.765625-12.179687c9.238281-5.417969 20.679687-5.351563 29.855469.164062l19.429687 11.683594c18.582031 11.171875 41.742187 11.296875 60.445313.332031l20.765624-12.179687c9.238282-5.417969 20.679688-5.351563 29.859376.164062l19.425781 11.683594c18.582031 11.167969 41.742187 11.296875 60.449219.332031l20.765624-12.179687c9.238282-5.417969 20.675782-5.351563 29.855469.164062l19.425781 11.683594c9.390626 5.644531 19.945313 8.46875 30.503907 8.46875 10.34375 0 20.691406-2.710938 29.945312-8.136719l20.785157-12.191406-15.175782-25.878906zm0 0"/></symbol><symbol id="pool-1" viewBox="0 0 512 512"><title>pool-1</title><path d="m367.043 170.414c-10.516-.365-20.016-5.047-26.749-13.181-4.914-5.937-13.938-5.925-18.842 0-14.597 17.637-41.462 17.606-56.031 0-4.973-6.007-14.005-5.842-18.843 0-14.592 17.633-41.455 17.613-56.031-.001-4.922-5.945-13.945-5.915-18.841 0-6.733 8.135-16.233 12.816-26.749 13.182-4.14.144-7.379 3.616-7.234 7.756.144 4.14 3.594 7.371 7.756 7.235 13.566-.472 26.386-6.328 35.646-16.187 20.276 21.629 54.569 21.657 74.875.001 20.278 21.629 54.571 21.654 74.874-.001 9.262 9.859 22.08 15.715 35.647 16.187 4.121.149 7.613-3.095 7.756-7.235.145-4.14-3.094-7.612-7.234-7.756z"/><path d="m340.294 218.757c-4.914-5.937-13.938-5.925-18.842 0-14.596 17.636-41.461 17.607-56.031 0-4.973-6.007-14.005-5.842-18.843 0-14.596 17.639-41.461 17.606-56.031-.001-4.904-5.922-13.927-5.938-18.841.001-7.994 9.658-20.182 14.484-32.612 12.914-4.1-.519-7.861 2.389-8.382 6.499-.521 4.109 2.39 7.862 6.499 8.382 16.481 2.089 32.658-3.795 43.916-15.808 20.277 21.628 54.568 21.654 74.873 0 20.276 21.627 54.57 21.656 74.873 0 11.258 12.013 27.436 17.896 43.915 15.808 4.109-.52 7.02-4.272 6.499-8.382s-4.289-7.019-8.382-6.499c-12.435 1.569-24.618-3.255-32.611-12.914z"/><path d="m360.782 107.7c-8.082-1.703-15.167-6-20.487-12.427-4.914-5.937-13.938-5.925-18.842 0-14.597 17.637-41.462 17.606-56.031 0-4.973-6.007-14.005-5.842-18.843 0-14.592 17.633-41.455 17.613-56.031-.001-4.922-5.945-13.945-5.915-18.841 0-5.32 6.427-12.404 10.725-20.486 12.428-4.054.854-6.647 4.832-5.793 8.885s4.84 6.647 8.885 5.792c10.383-2.188 19.592-7.39 26.816-15.117 20.282 21.631 54.572 21.648 74.872-.001 20.276 21.626 54.567 21.656 74.871.002 7.226 7.727 16.436 12.93 26.818 15.116 4.048.855 8.03-1.74 8.885-5.793.853-4.053-1.741-8.031-5.793-8.884z"/><path d="m54.985 429.273h169.732v69.579c0 7.25 5.898 13.148 13.149 13.148h25.192c7.25 0 13.148-5.898 13.148-13.148v-1.464h74.199v1.464c0 7.25 5.898 13.148 13.149 13.148h25.192c7.25 0 13.148-5.898 13.148-13.148v-69.579h55.119c24.121 0 43.081-20.886 40.657-44.956-.004-.04-.008-.08-.013-.12l-13.035-111.567c-.481-4.114-4.215-7.062-8.319-6.579-4.114.481-7.06 4.206-6.579 8.32l13.03 111.503c1.46 14.833-10.094 28.398-25.738 28.398h-55.119v-19.058h44.937c9.47 0 16.88-8.191 15.935-17.616-.005-.043-.01-.086-.015-.129l-38.756-329.074c-.861-8.179-7.695-14.337-15.927-14.337h-134.571c-4.143 0-7.5 3.358-7.5 7.5s3.357 7.5 7.5 7.5h134.571c.523 0 .957.393 1.01.914.004.042.009.083.014.125l38.75 329.034c.019.275-.074.547-.26.751-.191.212-.466.333-.752.333h-44.937v-22.892c0-39.477-32.256-70.344-70.345-70.344-26.778 0-50.947 15.189-62.839 38.744-12.008-23.772-36.725-39.25-64.206-38.731-37.7.709-68.988 31.593-68.988 70.332v22.892h-70.352c-.286 0-.56-.122-.753-.335-.185-.204-.277-.476-.259-.751l38.752-329.032c.005-.042.01-.084.014-.127.053-.52.486-.912 1.01-.912h134.57c4.143 0 7.5-3.358 7.5-7.5s-3.357-7.5-7.5-7.5h-134.57c-8.233 0-15.067 6.16-15.927 14.339l-38.757 329.073c-.005.043-.01.086-.015.129-.946 9.422 6.464 17.616 15.935 17.616h159.551v19.058h-169.732c-14.852 0-27.279-12.782-25.739-28.399l40.609-347.483c.005-.04.009-.08.013-.119 1.336-13.268 12.399-23.273 25.734-23.273h320.798c13.335 0 24.397 10.005 25.733 23.272.004.04.008.08.013.12l23.487 200.979c.481 4.115 4.217 7.063 8.319 6.579 4.114-.48 7.06-4.206 6.579-8.32l-23.48-200.922c-2.138-20.932-19.603-36.708-40.651-36.708h-320.798c-21.049 0-38.516 15.777-40.652 36.71l-40.61 347.488c-.005.04-.009.08-.013.12-2.415 23.999 16.466 44.955 40.658 44.955zm257.713-71.302c0-10.325 8.122-19.289 18.5-19.483 10.682-.204 19.209 8.491 19.209 18.836v22.892h-37.709zm-36.491 71.302h74.199v19.058h-74.199zm78.215-34.058c5.569 0 10.014 4.818 9.484 10.43-.473 4.884-4.59 8.627-9.484 8.627h-78.215v-19.058c26.112.001 52.167.001 78.215.001zm-78.215 68.116h78.215c5.537 0 10.016 4.796 9.484 10.43-.472 4.874-4.587 8.627-9.484 8.627h-78.215zm110.69 33.669h-21.49v-2.213c18.014-9.127 18.054-34.708 0-43.855v-24.26c18.098-9.17 17.968-34.752 0-43.855v-25.493c0-20.486-18.202-36.517-38.794-33.49-16.353 2.4-28.915 16.526-28.915 33.49v22.892h-21.49v-21.837c0-30.552 24.46-56.094 54.822-56.386 31.218-.262 55.867 25.058 55.867 55.331zm-236.377-116.785v-21.838c0-32.224 26.696-57.583 57.589-56.342 29.483 1.204 53.099 25.503 53.099 55.287v139.677h-21.49c0-14.418 0-121.063 0-139.677 0-17.95-14.065-32.804-31.915-33.795-19.276-1.096-35.793 14.261-35.793 33.795v22.892h-21.49zm36.49 0v-22.245c0-9.425 6.762-17.724 15.877-19.243 11.639-1.852 21.83 7.237 21.83 18.596v22.892z"/></symbol><symbol id="automation-1" viewBox="0 0 512 512"><title>automation-1</title><path d="m79.6 259.719 26.717-12.7 18.806 7.79 9.912 27.872a8 8 0 0 0 7.532 5.319h34.866a8 8 0 0 0 7.537-5.319l9.912-27.872 18.806-7.79 26.717 12.7a8.006 8.006 0 0 0 9.092-1.569l24.653-24.65a8 8 0 0 0 1.569-9.092l-12.7-26.717 7.79-18.806 27.872-9.912a8 8 0 0 0 5.319-7.54v-34.866a8 8 0 0 0 -5.319-7.537l-27.872-9.912-7.79-18.806 12.7-26.717a8 8 0 0 0 -1.569-9.095l-24.65-24.65a8 8 0 0 0 -9.092-1.569l-26.717 12.7-18.806-7.79-9.915-27.872a8 8 0 0 0 -7.537-5.319h-34.866a8 8 0 0 0 -7.537 5.319l-9.912 27.872-18.806 7.79-26.712-12.7a8 8 0 0 0 -9.1 1.569l-24.65 24.65a8 8 0 0 0 -1.569 9.1l12.7 26.717-7.79 18.806-27.872 9.907a8 8 0 0 0 -5.319 7.537v34.866a8 8 0 0 0 5.319 7.537l27.872 9.912 7.79 18.806-12.7 26.717a8 8 0 0 0 1.569 9.095l24.65 24.65a8.006 8.006 0 0 0 9.1 1.569zm-6.476-64.869-10.512-25.376a7.994 7.994 0 0 0 -4.712-4.474l-25.9-9.213v-23.574l25.9-9.213a7.994 7.994 0 0 0 4.71-4.476l10.514-25.374a8 8 0 0 0 -.165-6.5l-11.8-24.829 16.666-16.665 24.829 11.8a7.992 7.992 0 0 0 6.5.165l25.376-10.512a7.994 7.994 0 0 0 4.47-4.709l9.213-25.9h23.574l9.213 25.9a7.994 7.994 0 0 0 4.476 4.71l25.374 10.514a7.992 7.992 0 0 0 6.5-.165l24.829-11.8 16.669 16.669-11.8 24.829a8 8 0 0 0 -.165 6.5l10.512 25.376a7.994 7.994 0 0 0 4.705 4.467l25.9 9.211v23.574l-25.9 9.215a7.994 7.994 0 0 0 -4.71 4.476l-10.514 25.374a8 8 0 0 0 .165 6.5l11.8 24.829-16.669 16.669-24.829-11.8a7.992 7.992 0 0 0 -6.5-.165l-25.376 10.512a7.994 7.994 0 0 0 -4.467 4.705l-9.213 25.9h-23.574l-9.213-25.9a7.994 7.994 0 0 0 -4.476-4.71l-25.374-10.514a7.992 7.992 0 0 0 -6.5.165l-24.829 11.8-16.665-16.666 11.8-24.829a8 8 0 0 0 .168-6.496z"/><path d="m160 216a72 72 0 1 0 -72-72 72.081 72.081 0 0 0 72 72zm0-128a56 56 0 1 1 -56 56 56.063 56.063 0 0 1 56-56z"/><path d="m314.8 385.474-10.51 25.376a8 8 0 0 0 .165 6.5l11.8 24.829-16.669 16.669-24.829-11.8a8 8 0 0 0 -6.5-.165l-25.367 10.505a8 8 0 0 0 -4.477 4.71l-9.213 25.902h-23.571l-9.212-25.9a7.994 7.994 0 0 0 -4.476-4.71l-25.376-10.512a7.992 7.992 0 0 0 -6.5.165l-24.829 11.8-16.669-16.669 11.8-24.829a8 8 0 0 0 .165-6.5l-10.51-25.376a8 8 0 0 0 -4.704-4.469l-25.9-9.21v-23.577l25.9-9.211a8 8 0 0 0 4.711-4.476l10.51-25.376a8 8 0 0 0 -.165-6.5l-14.227-29.928-14.447 6.878 12.7 26.717-7.789 18.806-27.872 9.911a8 8 0 0 0 -5.319 7.538v34.866a8 8 0 0 0 5.319 7.538l27.872 9.911 7.789 18.806-12.7 26.717a8 8 0 0 0 1.57 9.092l24.65 24.648a8 8 0 0 0 9.091 1.569l26.717-12.7 18.8 7.79 9.913 27.872a8 8 0 0 0 7.542 5.319h34.866a8 8 0 0 0 7.538-5.319l9.911-27.872 18.806-7.79 26.716 12.7a8 8 0 0 0 9.091-1.569l24.654-24.65a8 8 0 0 0 1.57-9.092l-12.7-26.717 9.15-22.091z"/><path d="m331.565 270.5-24.654-24.65a8 8 0 0 0 -9.091-1.569l-29.927 14.227 6.869 14.451 24.829-11.8 16.669 16.669-11.8 24.829a8 8 0 0 0 -.165 6.5l9.076 21.912 14.781-6.124-7.714-18.626 12.7-26.717a8 8 0 0 0 -1.573-9.102z"/><path d="m217.416 432a72 72 0 1 0 -72-72 72.081 72.081 0 0 0 72 72zm0-128a56 56 0 1 1 -56 56 56.063 56.063 0 0 1 56-56z"/><path d="m490.681 143.03-27.872-9.912-7.79-18.806 12.7-26.717a8 8 0 0 0 -1.569-9.095l-24.65-24.65a8 8 0 0 0 -9.092-1.569l-26.717 12.7-18.806-7.79-9.911-27.872a8 8 0 0 0 -7.541-5.319h-34.866a8 8 0 0 0 -7.538 5.319l-9.911 27.872-22.091 9.152 6.123 14.781 25.376-10.512a8 8 0 0 0 4.474-4.712l9.21-25.9h23.574l9.216 25.9a7.994 7.994 0 0 0 4.476 4.71l25.374 10.514a8 8 0 0 0 6.5-.165l24.829-11.8 16.669 16.669-11.8 24.829a8 8 0 0 0 -.165 6.5l10.512 25.376a8 8 0 0 0 4.705 4.467l25.9 9.21v23.574l-25.9 9.216a8 8 0 0 0 -4.71 4.477l-10.514 25.373a8 8 0 0 0 .165 6.5l11.8 24.829-20.661 20.661 11.32 11.31 24.65-24.65a8 8 0 0 0 1.569-9.092l-12.7-26.717 7.79-18.806 27.872-9.911a8 8 0 0 0 5.319-7.541v-34.866a8 8 0 0 0 -5.319-7.537z"/><path d="m352 224a55.792 55.792 0 0 1 -51.932-35l-14.832 6a72 72 0 1 0 30.757-89.364l8.014 13.849a56 56 0 1 1 27.993 104.515z"/><path d="m442.745 304h-26.745v-32a24 24 0 0 0 -48 0v68.687l-5.372-5.374a24.971 24.971 0 0 0 -35.315 35.315l40.687 40.685v12.687h-8a8 8 0 0 0 -8 8v72h16v-64h96v64h16v-72a8 8 0 0 0 -8-8h-8v-12.687l16.4-16.4a53.255 53.255 0 0 0 -37.655-90.913zm26.343 79.6-18.745 18.745a8 8 0 0 0 -2.343 5.655v16h-64v-16a8 8 0 0 0 -2.343-5.657l-43.029-43.03a8.97 8.97 0 1 1 12.685-12.685l19.03 19.029a8 8 0 0 0 13.657-5.657v-88a8 8 0 0 1 16 0v40a8 8 0 0 0 8 8h34.745a37.255 37.255 0 0 1 26.343 63.6z"/><path d="m432 456h16v16h-16z"/></symbol></svg>